# This file uses centimeters as units for non-parametric coordinates.

mtllib testingObj.mtl
g default
v -2.000000 -2.000000 2.000000
v 2.000000 -2.000000 2.000000
v -2.000000 2.000000 2.000000
v 2.000000 2.000000 2.000000
v -2.000000 2.000000 -2.000000
v 2.000000 2.000000 -2.000000
v -2.000000 -2.000000 -2.000000
v 2.000000 -2.000000 -2.000000
vt 0.011377 0.507479
vt 0.249536 0.507479
vt 0.249536 0.745639
vt 0.011377 0.745639
vt 0.257848 0.749162
vt 0.493240 0.749162
vt 0.493240 0.984554
vt 0.257848 0.984554
vt 0.255290 0.023224
vt 0.493214 0.023224
vt 0.493214 0.261147
vt 0.255290 0.261147
vt 0.252835 0.502113
vt 0.496661 0.502113
vt 0.496661 0.745938
vt 0.252835 0.745938
vt 0.503877 0.509147
vt 0.733735 0.509147
vt 0.733735 0.739004
vt 0.503877 0.739004
vt 0.493031 0.501649
vt 0.256225 0.502608
vt 0.255267 0.265803
vt 0.492072 0.264844
vn 0.000000 0.000000 1.000000
vn 0.000000 0.000000 1.000000
vn 0.000000 0.000000 1.000000
vn 0.000000 0.000000 1.000000
vn 0.000000 1.000000 0.000000
vn 0.000000 1.000000 0.000000
vn 0.000000 1.000000 0.000000
vn 0.000000 1.000000 0.000000
vn 0.000000 0.000000 -1.000000
vn 0.000000 0.000000 -1.000000
vn 0.000000 0.000000 -1.000000
vn 0.000000 0.000000 -1.000000
vn 0.000000 -1.000000 0.000000
vn 0.000000 -1.000000 0.000000
vn 0.000000 -1.000000 0.000000
vn 0.000000 -1.000000 0.000000
vn 1.000000 0.000000 0.000000
vn 1.000000 0.000000 0.000000
vn 1.000000 0.000000 0.000000
vn 1.000000 0.000000 0.000000
vn -1.000000 0.000000 0.000000
vn -1.000000 0.000000 0.000000
vn -1.000000 0.000000 0.000000
vn -1.000000 0.000000 0.000000
s off
g textureEditorIsolateSelectSet testObj:pCube1
usemtl phong1SG
f 1/17/1 2/18/2 4/19/3 3/20/4
f 3/9/5 4/10/6 6/11/7 5/12/8
f 5/21/9 6/22/10 8/23/11 7/24/12
f 7/13/13 8/14/14 2/15/15 1/16/16
f 2/1/17 8/2/18 6/3/19 4/4/20
f 7/5/21 1/6/22 3/7/23 5/8/24
